<?xml version="1.0" encoding="utf-8"?>
<!-- Generator: Adobe Illustrator 16.0.0, SVG Export Plug-In . SVG Version: 6.00 Build 0)  -->
<!DOCTYPE svg PUBLIC "-//W3C//DTD SVG 1.1//EN" "http://www.w3.org/Graphics/SVG/1.1/DTD/svg11.dtd">
<svg version="1.1" id="h-color-google-logo" xmlns="http://www.w3.org/2000/svg" xmlns:xlink="http://www.w3.org/1999/xlink"
	 x="0px" y="0px" width="800px" height="600px" viewBox="0 0 800 600" enable-background="new 0 0 800 600" xml:space="preserve">
<g>
	<path fill="#4285F4" d="M163.339,271.476v21.232h50.75c-1.554,11.911-5.524,20.628-11.565,26.756
		C195.102,326.887,183.536,335,163.339,335c-31.244,0-55.67-25.202-55.67-56.446c0-31.244,24.426-56.447,55.67-56.447
		c16.831,0,29.173,6.646,38.235,15.19l14.932-14.932c-12.601-12.256-29.518-21.577-53.166-21.577
		c-42.81,0-78.801,34.869-78.801,77.678c0,42.811,35.992,77.68,78.801,77.68c23.131,0,40.566-7.597,54.202-21.749
		c13.983-13.982,18.384-33.749,18.384-49.629c0-4.919-0.346-9.494-1.123-13.292L163.339,271.476L163.339,271.476z"/>
	<path fill="#EA4335" d="M299.363,254.214c-27.706,0-50.319,21.059-50.319,50.146c0,28.826,22.613,50.146,50.319,50.146
		c27.706,0,50.318-21.232,50.318-50.146C349.681,275.273,327.068,254.214,299.363,254.214z M299.363,334.74
		c-15.191,0-28.309-12.517-28.309-30.382c0-18.04,13.118-30.38,28.309-30.38c15.19,0,28.309,12.342,28.309,30.38
		C327.672,322.226,314.553,334.74,299.363,334.74z"/>
	<path fill="#4285F4" d="M546.035,265.434h-0.776c-4.92-5.868-14.414-11.22-26.41-11.22c-25.029,0-46.865,21.837-46.865,50.146
		c0,28.137,21.836,50.146,46.865,50.146c11.996,0,21.49-5.352,26.41-11.395h0.776v6.991c0,19.161-10.271,29.432-26.756,29.432
		c-13.463,0-21.836-9.666-25.289-17.865l-19.16,7.94c5.522,13.291,20.11,29.603,44.449,29.603c25.807,0,47.643-15.188,47.643-52.216
		v-90.194h-20.887V265.434z M520.746,334.74c-15.188,0-26.756-12.946-26.756-30.382c0-17.693,11.565-30.38,26.756-30.38
		c15.02,0,26.758,12.946,26.758,30.554C547.59,322.053,535.765,334.74,520.746,334.74z"/>
	<path fill="#FBBC05" d="M411.565,254.214c-27.707,0-50.319,21.059-50.319,50.146c0,28.826,22.613,50.146,50.319,50.146
		c27.704,0,50.317-21.232,50.317-50.146C461.884,275.273,439.271,254.214,411.565,254.214z M411.565,334.74
		c-15.191,0-28.311-12.517-28.311-30.382c0-18.04,13.118-30.38,28.311-30.38c15.189,0,28.31,12.342,28.31,30.38
		C439.875,322.226,426.756,334.74,411.565,334.74z"/>
	<path fill="#34A853" d="M584.186,202.859h21.663v151.646h-21.663V202.859z"/>
	<path fill="#EA4335" d="M672.738,334.74c-11.222,0-19.161-5.092-24.339-15.19l67.062-27.705l-2.244-5.696
		c-4.143-11.22-16.917-31.935-42.896-31.935c-25.806,0-47.297,20.283-47.297,50.146c0,28.137,21.232,50.146,49.716,50.146
		c22.957,0,36.249-14.067,41.772-22.182l-17.09-11.395C691.726,329.216,683.959,334.74,672.738,334.74L672.738,334.74z
		 M671.186,273.029c8.891,0,16.484,4.574,18.987,11.048l-45.312,18.729C644.861,281.746,659.791,273.029,671.186,273.029z"/>
</g>
</svg>
